<?xml version="1.0" standalone="no"?>
<!DOCTYPE svg PUBLIC "-//W3C//DTD SVG 20010904//EN"
 "http://www.w3.org/TR/2001/REC-SVG-20010904/DTD/svg10.dtd">
<svg version="1.0" xmlns="http://www.w3.org/2000/svg"
 width="292.000000pt" height="292.000000pt" viewBox="0 0 292.000000 292.000000"
 preserveAspectRatio="xMidYMid meet">
<metadata>
Created by potrace 1.14, written by Peter Selinger 2001-2017
</metadata>
<g transform="translate(0.000000,292.000000) scale(0.100000,-0.100000)"
fill="#000000" stroke="none">
<path d="M2440 2910 c0 -5 -20 -10 -44 -10 -25 0 -48 -4 -51 -10 -4 -6 22 -10
72 -10 l78 0 23 -48 c37 -79 27 -101 -55 -117 -17 -3 -37 -12 -43 -20 -6 -7
-26 -16 -44 -19 -19 -4 -37 -13 -40 -21 -3 -8 -12 -15 -20 -15 -7 0 -27 -7
-42 -15 -16 -8 -39 -15 -52 -15 -22 0 -33 -6 -73 -42 -10 -10 -22 -18 -27 -18
-12 0 -72 -58 -72 -69 0 -6 -10 -11 -21 -11 -12 0 -27 -8 -34 -17 -10 -14 -18
-15 -46 -6 -19 6 -26 11 -16 12 9 1 17 5 17 10 0 13 -53 21 -94 14 -39 -6 -59
-23 -29 -23 17 -1 17 -1 1 -14 -10 -7 -18 -16 -18 -20 0 -3 8 -6 18 -6 16 -1
16 -2 -1 -14 -14 -11 -20 -32 -23 -80 -2 -37 0 -68 6 -71 6 -4 8 -11 5 -16 -4
-5 -3 -15 2 -21 4 -7 8 -29 9 -48 1 -19 4 -42 7 -50 5 -14 23 -79 46 -166 6
-23 11 -52 11 -65 0 -13 6 -35 13 -49 8 -14 17 -37 21 -50 7 -25 55 -231 60
-260 8 -46 48 -150 57 -150 4 0 10 -17 14 -37 4 -21 10 -42 13 -48 4 -5 7 -14
8 -20 3 -25 17 -55 25 -55 5 0 7 -21 5 -48 -2 -26 1 -53 6 -60 6 -6 7 -12 3
-12 -4 0 -3 -6 2 -12 19 -24 22 -61 8 -88 -15 -29 -33 -40 -67 -40 -11 0 -33
-7 -48 -17 -26 -15 -29 -15 -46 1 -9 10 -25 15 -36 13 -10 -3 -33 -1 -50 4
-38 10 -144 21 -213 22 -59 0 -127 -31 -166 -76 -26 -29 -26 -29 -52 -12 -15
9 -27 25 -27 34 0 9 -5 22 -11 28 -6 6 -13 44 -16 84 -7 97 -19 120 -26 49 -6
-64 -4 -107 7 -135 4 -11 12 -32 18 -47 6 -16 14 -28 18 -28 17 0 20 -36 6
-65 -8 -16 -17 -38 -20 -48 -3 -10 -11 -15 -17 -11 -7 4 -9 0 -5 -14 5 -16 0
-24 -25 -36 -18 -9 -39 -16 -48 -16 -9 0 -27 -7 -41 -15 -14 -8 -44 -24 -67
-35 -23 -12 -45 -30 -48 -40 -3 -11 -28 -36 -56 -56 -27 -20 -57 -50 -67 -68
l-17 -31 -3 28 c-2 16 5 39 17 56 42 58 20 69 -32 16 -19 -20 -41 -33 -48 -30
-20 7 -33 -5 -52 -46 -9 -20 -27 -43 -40 -52 -16 -11 -24 -25 -24 -46 0 -40
-6 -45 -33 -31 -18 9 -24 9 -30 0 -4 -7 -13 -9 -20 -5 -6 4 -17 0 -23 -8 -18
-23 -76 -32 -83 -14 -6 17 12 57 34 73 12 8 12 13 3 19 -8 4 -24 -4 -42 -24
-31 -35 -35 -51 -17 -69 9 -9 7 -13 -7 -18 -12 -5 -20 -3 -23 5 -3 9 -7 9 -18
0 -10 -8 -21 -8 -43 2 -36 16 -30 39 10 39 16 0 29 5 29 10 0 9 -14 11 -85 14
-11 1 -29 7 -40 13 -16 10 -17 14 -6 22 9 6 10 11 2 15 -6 4 -11 2 -11 -3 0
-6 -4 -11 -10 -11 -20 0 -9 27 26 68 19 23 33 46 29 52 -9 15 -25 12 -25 -4 0
-14 -72 -46 -102 -46 -19 0 -38 29 -38 55 0 19 -35 67 -43 59 -3 -3 -8 13 -12
35 -4 25 -12 41 -21 41 -7 0 -18 9 -24 21 -9 16 -14 18 -26 8 -8 -6 -14 -18
-14 -25 0 -8 -4 -14 -9 -14 -5 0 -12 35 -14 78 -12 184 -38 210 -67 68 -8 -38
-8 -61 -2 -65 5 -3 12 -24 14 -46 3 -22 9 -49 13 -59 9 -20 9 -20 -42 1 -20 8
-16 -43 8 -89 19 -36 20 -46 9 -79 -18 -54 -4 -68 31 -30 28 32 45 27 34 -9
-4 -11 -14 -20 -23 -20 -19 0 -72 -86 -72 -116 0 -10 -9 -28 -21 -40 l-20 -21
25 -5 c14 -3 24 -2 23 1 -1 3 9 23 22 44 17 27 22 46 17 68 -3 16 -1 29 4 29
6 0 10 -8 10 -19 0 -26 27 -48 42 -33 6 6 16 9 22 6 7 -2 12 10 13 32 3 52 36
85 50 48 3 -8 -3 -25 -15 -37 -27 -28 -34 -83 -11 -79 27 4 32 -37 6 -48 -26
-11 -57 -35 -57 -44 0 -3 9 -6 20 -6 11 0 20 -4 20 -10 0 -5 -9 -10 -20 -10
-22 0 -66 -35 -82 -65 -6 -11 -12 -36 -13 -57 -2 -37 -1 -38 31 -38 23 0 34 5
34 15 0 30 79 44 88 15 2 -5 24 -10 48 -10 24 0 44 -4 44 -10 0 -6 56 -10 148
-10 l147 1 -77 38 c-42 21 -83 43 -91 49 -7 6 -29 13 -48 15 -62 7 -215 -10
-250 -27 -20 -10 -36 -13 -42 -7 -6 6 0 14 14 21 13 7 32 22 41 34 15 19 26
21 97 20 77 -2 164 -16 206 -34 81 -35 151 -53 223 -57 72 -5 82 -8 82 -25 0
-27 28 -34 64 -16 73 37 105 48 121 42 13 -5 8 -12 -22 -31 l-38 -24 101 5
c56 3 116 9 134 13 24 4 31 3 26 -5 -5 -9 214 -12 878 -12 l886 0 0 980 c0
647 -3 980 -10 980 -5 0 -10 -5 -10 -12 0 -9 -3 -9 -12 0 -7 7 -16 12 -20 12
-4 0 -8 -69 -8 -154 0 -93 -4 -157 -10 -161 -5 -3 -10 3 -10 14 0 12 -4 21
-10 21 -10 0 -14 -115 -11 -347 2 -149 -15 -177 -34 -57 -4 23 -2 45 3 48 13
8 15 826 2 826 -6 0 -10 -29 -10 -69 0 -72 -6 -101 -21 -101 -4 0 -6 57 -3
128 5 135 -1 191 -18 174 -13 -13 -23 -622 -10 -622 5 0 13 28 18 63 l8 62 8
-55 c5 -30 8 -64 8 -75 0 -11 -2 -157 -5 -324 -2 -192 -8 -308 -15 -315 -7 -7
-10 43 -10 162 0 108 -4 172 -10 172 -6 0 -10 -35 -11 -82 0 -88 -15 -151 -21
-93 -1 17 -3 98 -3 180 0 127 -2 150 -15 150 -11 0 -15 -12 -15 -50 -1 -109
-5 -150 -14 -135 -5 8 -11 88 -14 178 -2 104 -8 167 -15 174 -17 17 -15 58 3
58 11 0 15 12 15 46 0 27 -4 43 -10 39 -5 -3 -10 -15 -10 -26 0 -43 -25 -10
-35 45 l-10 58 -32 -44 c-22 -32 -50 -53 -97 -76 -58 -28 -75 -32 -150 -32
-60 0 -87 -4 -95 -14 -15 -18 5 -34 22 -17 17 17 48 13 96 -10 43 -21 94 -22
149 -4 14 5 22 3 22 -4 0 -6 -9 -11 -20 -11 -11 0 -20 -5 -20 -11 0 -5 4 -8 9
-5 5 4 20 2 33 -3 l23 -9 -30 -12 c-24 -9 -26 -13 -15 -21 11 -7 6 -9 -20 -8
-49 2 -59 -2 -30 -11 l25 -7 -30 -13 c-23 -10 -26 -14 -12 -17 35 -9 15 -23
-33 -23 -27 0 -50 -4 -50 -10 0 -5 23 -10 50 -10 28 0 50 -4 50 -10 0 -6 -40
-10 -100 -10 -60 0 -100 -4 -100 -10 0 -5 -5 -10 -11 -10 -6 0 -8 9 -4 20 5
16 2 20 -19 20 -14 0 -26 5 -26 10 0 6 5 10 10 10 6 0 10 5 10 10 0 6 -7 10
-15 10 -8 0 -15 5 -15 10 0 6 7 10 15 10 8 0 15 5 15 10 0 6 -9 10 -20 10 -11
0 -20 5 -20 10 0 6 5 10 10 10 6 0 10 5 10 10 0 6 -7 10 -15 10 -9 0 -25 9
-37 20 -12 11 -27 20 -32 20 -9 0 -51 55 -54 70 0 3 -5 18 -11 33 -8 21 -7 36
4 64 15 36 15 36 36 17 11 -10 16 -20 10 -22 -6 -2 -11 -10 -11 -18 0 -11 5
-12 18 -5 12 6 23 6 33 0 11 -8 11 -12 2 -16 -7 -2 -13 -9 -13 -15 0 -6 8 -4
18 5 12 11 36 17 67 17 108 0 174 102 131 204 -39 94 -174 114 -240 35 l-26
-31 -2 44 c-3 103 13 128 121 189 91 52 181 63 258 34 53 -20 140 -96 155
-135 10 -24 11 -24 18 -5 4 11 3 30 -3 42 -7 16 -6 35 3 65 21 71 24 75 27 38
2 -19 6 -42 9 -50 4 -13 6 -13 14 0 10 15 6 361 -3 377 -3 4 -8 40 -12 78 -4
39 -11 75 -15 80 -16 22 -17 57 -5 100 12 38 12 45 0 45 -7 0 -15 -6 -18 -12
-4 -10 -7 -10 -18 0 -16 14 -129 17 -129 2z m79 -406 c13 -12 12 -16 -2 -32
-21 -23 -111 -52 -158 -50 -36 1 -99 -21 -99 -34 0 -5 -22 -19 -50 -32 -56
-27 -70 -13 -22 23 15 11 44 34 66 51 21 16 45 30 52 30 8 0 24 11 36 25 12
14 27 24 34 21 6 -2 29 2 50 9 41 15 70 11 93 -11z m6 -64 c-10 -11 -22 -17
-27 -14 -12 8 11 34 30 34 13 0 12 -3 -3 -20z m375 -585 c0 -8 -4 -17 -10 -20
-6 -4 -10 5 -10 20 0 15 4 24 10 20 6 -3 10 -12 10 -20z m0 -105 c0 -11 -4
-20 -10 -20 -5 0 -10 9 -10 20 0 11 5 20 10 20 6 0 10 -9 10 -20z m-1 -127 c0
-31 -2 -34 -9 -18 -12 28 -12 55 0 55 6 0 10 -17 9 -37z m-52 -55 c-3 -8 -6
-5 -6 6 -1 11 2 17 5 13 3 -3 4 -12 1 -19z m-707 -58 c0 -5 -5 -10 -11 -10 -5
0 -7 5 -4 10 3 6 8 10 11 10 2 0 4 -4 4 -10z m756 -37 c-10 -10 -19 5 -10 18
6 11 8 11 12 0 2 -7 1 -15 -2 -18z m-516 -3 c0 -6 -32 -10 -75 -10 -43 0 -75
4 -75 10 0 6 32 10 75 10 43 0 75 -4 75 -10z m-180 -20 c0 -5 -9 -10 -20 -10
-11 0 -20 5 -20 10 0 6 9 10 20 10 11 0 20 -4 20 -10z m195 -20 c-3 -5 -40
-10 -81 -10 -54 0 -86 -5 -116 -20 -22 -11 -45 -17 -50 -14 -15 9 24 33 55 34
15 0 27 5 27 10 0 6 35 10 86 10 54 0 83 -4 79 -10z m-20 -40 c3 -5 -3 -10
-14 -10 -11 0 -23 -4 -26 -10 -4 -6 5 -10 19 -10 14 0 26 -4 26 -9 0 -5 -20
-9 -45 -9 -25 0 -52 -6 -60 -12 -7 -6 -29 -9 -47 -7 -30 4 -31 5 -10 12 32 11
27 25 -8 25 -16 0 -30 5 -30 10 0 6 11 10 24 10 14 0 28 5 31 10 3 6 35 10 70
10 35 0 67 -4 70 -10z m524 -95 c0 -30 -4 -55 -9 -55 -11 0 -14 93 -3 103 10
11 11 9 12 -48z m-484 15 c4 -6 -10 -10 -34 -10 -23 0 -41 5 -41 10 0 6 15 10
34 10 19 0 38 -4 41 -10z m437 -32 c-9 -9 -12 -7 -12 12 0 19 3 21 12 12 9 -9
9 -15 0 -24z m-582 12 c0 -5 -7 -10 -15 -10 -8 0 -15 5 -15 10 0 6 7 10 15 10
8 0 15 -4 15 -10z m150 -19 c0 -4 -28 -11 -62 -14 -35 -3 -71 -8 -80 -12 -10
-4 -18 -3 -18 3 0 5 26 14 58 20 76 13 102 14 102 3z m231 -159 c-8 -13 -10
-2 -11 43 0 91 14 126 18 42 2 -37 -2 -75 -7 -85z m249 68 c0 -16 -4 -30 -10
-30 -5 0 -10 14 -10 30 0 17 5 30 10 30 6 0 10 -13 10 -30z m-760 -14 c0 -3
-4 -8 -10 -11 -5 -3 -10 -1 -10 4 0 6 5 11 10 11 6 0 10 -2 10 -4z m670 -46
c0 -11 -4 -20 -10 -20 -5 0 -10 9 -10 20 0 11 5 20 10 20 6 0 10 -9 10 -20z
m-95 -104 c-4 -47 -11 -88 -16 -91 -15 -10 -22 47 -10 81 6 18 9 44 5 58 -8
34 3 63 18 48 7 -7 8 -39 3 -96z m-498 35 c-1 -17 -4 -18 -13 -9 -7 7 -16 26
-20 42 l-7 29 21 -21 c11 -11 20 -30 19 -41z m637 12 c4 -27 2 -43 -4 -43 -5
0 -10 21 -10 47 0 55 5 54 14 -4z m-94 -227 c0 -86 -4 -147 -10 -151 -6 -4
-11 17 -11 54 -4 160 0 241 11 241 6 0 10 -55 10 -144z m-57 -9 c-8 -14 -23 4
-23 27 0 35 14 41 21 9 3 -15 4 -31 2 -36z m-943 2 c0 -18 -31 -29 -70 -24
-14 2 -28 4 -32 4 -5 1 -8 10 -8 21 0 18 6 19 55 17 43 -1 55 -5 55 -18z m466
-10 c-5 -51 -56 -70 -56 -21 0 32 16 52 42 52 14 0 17 -7 14 -31z m574 -10 c0
-11 -4 -17 -10 -14 -5 3 -10 15 -10 26 0 11 5 17 10 14 6 -3 10 -15 10 -26z
m-2713 -41 c-3 -7 -5 -2 -5 12 0 14 2 19 5 13 2 -7 2 -19 0 -25z m2709 -144
c-4 -12 -10 -14 -17 -7 -5 5 -7 17 -3 27 4 12 10 14 17 7 5 -5 7 -17 3 -27z
m41 -26 c-3 -8 -6 -5 -6 6 -1 11 2 17 5 13 3 -3 4 -12 1 -19z m-2577 -68 c0
-16 -4 -30 -9 -30 -5 0 -8 12 -6 28 4 34 4 32 10 32 3 0 5 -13 5 -30z m882
-57 c-23 -33 -38 -103 -22 -103 22 0 8 -48 -24 -79 -26 -25 -40 -32 -65 -29
l-31 3 30 35 c28 33 34 44 28 54 -2 2 4 12 14 22 9 11 24 39 34 64 19 50 47
87 52 71 2 -6 -5 -23 -16 -38z m388 -15 c-18 -45 -28 -55 -36 -34 -10 25 24
92 38 78 8 -8 7 -20 -2 -44z m-79 -15 c-13 -27 -28 -64 -42 -105 -13 -39 -39
-52 -39 -20 0 9 9 32 20 50 11 18 20 41 20 51 0 10 7 24 15 31 8 7 15 20 15
29 1 14 2 14 11 -1 6 -11 6 -24 0 -35z m245 20 c-10 -10 -19 5 -10 18 6 11 8
11 12 0 2 -7 1 -15 -2 -18z m-396 -3 c0 -6 -5 -19 -12 -30 -16 -25 -4 -37 17
-16 18 18 35 21 35 7 0 -17 -68 -135 -92 -160 -23 -24 -23 -24 -26 -3 -5 32
-21 27 -59 -18 -19 -22 -41 -40 -49 -40 -8 0 -14 -4 -14 -10 0 -5 -4 -10 -10
-10 -5 0 -31 -13 -56 -30 -26 -16 -49 -28 -51 -26 -9 9 11 36 27 36 10 0 28
12 39 26 11 14 38 39 60 55 44 31 84 87 95 133 11 44 96 120 96 86z m244 -127
c-20 -18 -41 -33 -45 -33 -8 0 16 47 55 107 l21 33 3 -38 c3 -32 -1 -41 -34
-69z m156 97 c0 -5 -5 -10 -12 -10 -8 0 -6 -6 4 -16 15 -16 18 -15 41 12 14
16 28 26 31 23 9 -9 -11 -59 -24 -59 -5 0 -10 -13 -10 -29 0 -25 -5 -31 -37
-42 -21 -6 -42 -15 -48 -19 -5 -4 -22 -8 -37 -8 l-27 1 35 51 c19 28 34 58 34
66 0 9 5 21 12 28 15 15 38 16 38 2z m-320 -30 c0 -18 -49 -65 -57 -56 -4 5
-2 11 5 13 6 3 12 10 12 17 0 14 20 36 32 36 4 0 8 -5 8 -10z m1475 1 c3 -5 1
-12 -5 -16 -5 -3 -10 1 -10 9 0 18 6 21 15 7z m-98 -31 c0 -16 -4 -30 -9 -30
-10 0 -11 44 -1 53 9 10 10 10 10 -23z m-407 1 c0 -6 -4 -13 -10 -16 -5 -3
-10 1 -10 9 0 9 5 16 10 16 6 0 10 -4 10 -9z m-147 -53 c2 -29 8 -67 11 -84 5
-22 2 -35 -9 -44 -13 -10 -15 -9 -15 8 0 11 -7 25 -15 32 -16 13 -19 42 -9
103 10 56 31 47 37 -15z m-740 4 c-3 -12 -9 -22 -14 -22 -12 0 -11 7 3 30 15
24 19 21 11 -8z m-133 -21 c0 -15 -38 -56 -45 -49 -8 8 23 58 36 58 5 0 9 -4
9 -9z m23 -61 c-45 -40 -56 -65 -41 -89 10 -16 7 -24 -18 -54 -16 -20 -34 -36
-39 -36 -6 -1 -27 -10 -48 -21 -39 -21 -51 -11 -16 14 12 8 18 19 14 26 -5 9
-1 10 14 5 12 -4 21 -2 21 4 0 6 7 11 15 11 8 0 16 6 16 13 1 6 3 19 4 27 1 8
3 23 4 32 0 9 19 35 41 58 22 23 40 47 40 53 0 7 4 7 13 -2 10 -10 6 -18 -20
-41z m-1072 25 c0 -6 -10 -12 -23 -13 -19 -4 -20 -2 -9 12 15 17 33 18 32 1z
m359 -14 c0 -11 -30 -19 -48 -14 -6 3 -10 9 -6 14 7 12 54 12 54 0z m-80 -65
c19 -11 40 -21 47 -22 16 -3 72 -46 72 -56 1 -14 -43 -9 -97 10 -29 10 -55 22
-59 25 -3 4 -16 7 -27 7 -12 0 -31 6 -42 14 -11 8 -45 16 -75 18 -48 3 -51 4
-24 11 17 5 37 12 45 17 24 14 122 -1 160 -24z m1080 -21 c-39 -41 -48 -39
-25 4 10 20 23 31 37 31 20 0 19 -3 -12 -35z m400 25 c0 -17 -23 -60 -32 -60
-5 0 -19 7 -32 16 -16 10 -26 12 -31 5 -11 -19 -25 -12 -25 14 0 22 3 25 24
19 13 -3 27 -1 30 5 9 14 66 15 66 1z m-212 -9 c12 -7 12 -12 1 -29 -17 -28
-35 -34 -48 -18 -7 9 -6 19 5 34 17 24 22 26 42 13z m52 -5 c0 -8 -4 -18 -10
-21 -5 -3 -10 3 -10 14 0 12 5 21 10 21 6 0 10 -6 10 -14z m-397 -28 c2 -7 -3
-21 -11 -31 -14 -15 -14 -21 -3 -39 15 -24 7 -35 -37 -47 -37 -11 -39 -8 -14
19 10 10 23 40 30 65 12 44 26 57 35 33z m-223 -18 c0 -5 -5 -10 -11 -10 -5 0
-7 5 -4 10 3 6 8 10 11 10 2 0 4 -4 4 -10z m140 -34 c0 -24 -17 -28 -23 -6 -3
13 0 20 9 20 8 0 14 -6 14 -14z m-40 -8 c0 -19 -65 -68 -89 -68 -12 0 -21 3
-21 6 0 9 28 34 39 34 6 0 16 9 23 20 14 22 48 27 48 8z"/>
<path d="M1280 150 c0 -5 5 -10 10 -10 6 0 10 5 10 10 0 6 -4 10 -10 10 -5 0
-10 -4 -10 -10z"/>
<path d="M2735 2891 c6 -29 -8 -51 -20 -31 -9 14 -23 13 -22 -2 1 -7 -2 -34
-6 -60 -6 -35 -4 -54 8 -77 8 -17 18 -31 20 -31 2 0 3 31 0 70 -2 38 0 72 5
75 13 8 22 -31 20 -83 -2 -26 -2 -76 0 -112 4 -120 18 -24 19 133 1 128 -1
147 -15 147 -12 0 -14 -7 -9 -29z"/>
<path d="M2780 2789 c0 -84 4 -128 10 -124 6 3 10 21 10 40 0 30 14 54 26 43
8 -9 9 -83 0 -107 -8 -22 -6 -23 17 -17 33 8 41 -6 32 -52 l-7 -37 -14 35
c-12 27 -17 32 -24 20 -5 -8 -10 -27 -10 -42 0 -16 -4 -28 -10 -28 -5 0 -10 5
-10 10 0 6 -4 10 -9 10 -5 0 -9 -48 -9 -107 l1 -108 10 88 c10 91 26 117 28
45 1 -24 0 -199 -1 -390 -1 -256 1 -348 10 -348 8 0 11 42 9 148 -2 146 5 199
22 154 5 -12 15 -22 24 -22 8 0 15 -4 15 -10 0 -5 5 -10 10 -10 6 0 10 97 10
270 0 173 -4 270 -10 270 -5 0 -10 12 -10 26 0 14 4 23 10 19 6 -4 10 15 10
49 0 31 -4 56 -10 56 -5 0 -10 18 -10 41 0 24 4 38 10 34 6 -4 10 17 10 54 0
34 -4 61 -10 61 -5 0 -10 14 -10 30 0 17 -4 30 -10 30 -5 0 -10 -11 -10 -24 0
-14 -4 -28 -10 -31 -6 -4 -10 7 -10 24 0 25 -4 31 -21 31 -20 0 -21 -3 -14
-70 6 -60 5 -70 -9 -70 -13 0 -16 12 -16 70 0 40 -4 70 -10 70 -6 0 -10 -50
-10 -131z m100 -79 c0 -16 -4 -30 -10 -30 -11 0 -14 43 -3 53 11 12 13 8 13
-23z m27 -277 c-3 -10 -5 -2 -5 17 0 19 2 27 5 18 2 -10 2 -26 0 -35z m-29 -5
c-6 -18 -28 -21 -28 -4 0 9 7 16 16 16 9 0 14 -5 12 -12z m-18 -93 c0 -8 -4
-15 -10 -15 -5 0 -10 7 -10 15 0 8 5 15 10 15 6 0 10 -7 10 -15z"/>
<path d="M2640 2879 c0 -11 5 -17 10 -14 6 3 10 13 10 21 0 8 -4 14 -10 14 -5
0 -10 -9 -10 -21z"/>
<path d="M2332 2855 c11 -12 57 -15 80 -6 19 8 13 10 -31 10 -30 1 -52 -1 -49
-4z"/>
<path d="M2640 2779 c0 -37 4 -58 10 -54 6 3 10 31 10 61 0 30 -4 54 -10 54
-6 0 -10 -27 -10 -61z"/>
<path d="M2642 2675 c0 -16 2 -22 5 -12 2 9 2 23 0 30 -3 6 -5 -1 -5 -18z"/>
<path d="M620 2665 c-10 -11 -10 -18 -1 -29 17 -20 -1 -24 -78 -18 l-64 5 5
-27 c4 -21 1 -26 -14 -26 -39 0 -96 -38 -103 -69 -3 -16 -17 -37 -30 -45 -13
-9 -35 -27 -49 -41 -14 -14 -30 -25 -36 -25 -5 0 -10 -7 -10 -15 0 -17 16 -20
25 -6 3 5 19 12 35 16 17 4 30 11 30 16 0 5 12 15 28 22 15 6 29 14 32 17 14
17 80 50 98 50 12 0 26 8 31 18 7 10 14 13 18 7 12 -16 61 -15 67 1 7 18 26
18 26 0 0 -18 24 -28 74 -33 42 -3 96 -23 96 -35 0 -4 12 -8 27 -10 41 -5 42
-33 1 -43 -18 -5 -37 -9 -43 -9 -5 -1 -15 -5 -22 -9 -6 -4 -18 -4 -27 -1 -11
4 -16 0 -16 -12 -1 -18 -1 -18 -14 -1 -16 20 -86 24 -86 5 0 -13 -50 -51 -82
-64 -10 -3 -18 -13 -18 -21 0 -8 3 -13 8 -11 64 31 90 46 102 61 12 14 21 15
50 7 19 -5 76 -19 125 -31 50 -12 104 -28 120 -36 38 -19 167 -151 154 -159
-5 -3 -7 -10 -3 -15 10 -17 5 -146 -7 -173 l-12 -27 -26 53 c-68 137 -248 110
-276 -42 -8 -48 28 -118 72 -139 44 -21 41 -31 -8 -31 -47 0 -46 -14 2 -18 42
-3 49 -9 49 -38 0 -16 5 -24 13 -21 6 2 12 10 12 18 0 7 9 15 20 18 11 2 23 8
27 14 4 7 11 7 22 -2 14 -12 16 -10 16 14 0 19 6 28 21 32 12 3 18 11 15 19
-3 8 -2 14 3 14 5 0 11 10 14 23 4 12 13 31 21 42 14 19 15 19 35 1 20 -18 21
-18 31 10 8 20 8 30 1 32 -13 4 -15 32 -3 32 5 0 9 20 11 44 1 33 -2 45 -15
50 -16 6 -15 8 2 21 10 8 31 15 47 15 15 0 27 5 27 10 0 6 -16 10 -36 10 -21
0 -33 4 -29 10 3 6 37 10 74 10 39 0 84 7 106 15 20 9 45 13 56 10 11 -4 19
-2 19 4 0 6 -10 11 -22 11 -23 1 -23 1 -3 16 17 12 18 16 5 24 -12 8 -12 10 3
16 10 4 16 12 13 19 -5 15 14 25 46 25 14 0 18 5 14 15 -3 9 3 19 14 25 11 6
20 17 20 25 0 7 9 17 20 20 23 7 27 35 5 35 -9 0 -15 7 -13 17 3 15 -8 17 -88
18 -98 1 -143 18 -140 52 1 19 -18 21 -82 8 -18 -3 -31 -3 -30 2 1 4 -2 19 -6
32 -7 21 -12 23 -51 18 -35 -5 -48 -2 -76 18 -18 14 -39 25 -45 25 -7 0 -17 6
-21 14 -10 16 -61 27 -69 14 -3 -5 -13 0 -21 11 -8 12 -23 21 -34 21 -10 0
-19 5 -19 10 0 6 -8 10 -17 10 -10 0 -27 7 -37 15 -11 8 -30 15 -43 15 -13 0
-23 5 -23 10 0 16 -46 12 -60 -5z m296 -282 c-11 -11 -36 7 -36 27 0 20 0 20
21 -1 11 -11 18 -23 15 -26z m514 -7 c0 -2 -7 -6 -15 -10 -8 -3 -15 -1 -15 4
0 6 7 10 15 10 8 0 15 -2 15 -4z m-670 -26 c0 -5 -4 -10 -10 -10 -5 0 -10 5
-10 10 0 6 5 10 10 10 6 0 10 -4 10 -10z"/>
<path d="M2694 2626 c-10 -27 2 -43 14 -19 8 14 9 24 2 28 -6 3 -13 -1 -16 -9z"/>
<path d="M2780 2621 c0 -11 5 -23 10 -26 6 -4 10 5 10 19 0 14 -4 26 -10 26
-5 0 -10 -9 -10 -19z"/>
<path d="M2741 2521 c-1 -40 2 -52 10 -44 7 7 8 24 1 54 l-10 44 -1 -54z"/>
<path d="M2688 2534 c-10 -15 -12 -270 -2 -286 15 -24 20 36 15 167 -3 72 -9
125 -13 119z"/>
<path d="M1895 2510 c-3 -5 -2 -10 4 -10 5 0 13 5 16 10 3 6 2 10 -4 10 -5 0
-13 -4 -16 -10z"/>
<path d="M1210 2490 c0 -6 7 -10 15 -10 8 0 15 2 15 4 0 2 -7 6 -15 10 -8 3
-15 1 -15 -4z"/>
<path d="M1650 2490 c0 -5 5 -10 10 -10 6 0 10 5 10 10 0 6 -4 10 -10 10 -5 0
-10 -4 -10 -10z"/>
<path d="M1360 2430 c0 -5 5 -10 10 -10 6 0 10 5 10 10 0 6 -4 10 -10 10 -5 0
-10 -4 -10 -10z"/>
<path d="M1480 2430 c0 -5 5 -10 10 -10 6 0 10 5 10 10 0 6 -4 10 -10 10 -5 0
-10 -4 -10 -10z"/>
<path d="M2741 2354 c0 -11 3 -14 6 -6 3 7 2 16 -1 19 -3 4 -6 -2 -5 -13z"/>
<path d="M476 2255 c-3 -8 -11 -12 -19 -9 -16 6 -63 -33 -53 -43 4 -4 11 -1
16 7 5 8 12 11 16 7 4 -4 -2 -27 -14 -51 -12 -24 -22 -48 -22 -53 0 -13 -76
-83 -89 -83 -5 0 -11 -10 -13 -22 -2 -13 -9 -24 -15 -24 -24 -3 -25 -4 -13
-19 11 -13 9 -19 -10 -35 -21 -18 -21 -20 -5 -26 10 -4 30 0 45 10 35 20 57
20 68 0 7 -13 12 -13 40 3 l31 18 34 -33 c31 -31 34 -36 24 -62 -10 -25 -8
-31 14 -49 29 -24 45 -26 53 -6 6 17 36 21 36 5 0 -5 9 -10 19 -10 11 0 23 -4
26 -10 3 -5 11 -10 18 -10 16 0 -52 49 -91 65 -27 12 -32 18 -27 37 3 13 -1
40 -10 60 -8 21 -15 51 -15 69 0 17 -3 29 -7 27 -5 -2 -20 -10 -36 -18 -76
-38 -44 59 54 162 32 34 59 65 59 70 0 11 -24 10 -35 -1 -6 -5 -21 -12 -34
-16 -22 -7 -24 -5 -18 24 5 23 3 31 -7 31 -8 0 -16 -7 -20 -15z"/>
<path d="M2780 2219 c0 -17 4 -28 10 -24 6 3 10 17 10 31 0 13 -4 24 -10 24
-5 0 -10 -14 -10 -31z"/>
<path d="M2681 2204 c0 -11 3 -14 6 -6 3 7 2 16 -1 19 -3 4 -6 -2 -5 -13z"/>
<path d="M2627 2194 c-10 -11 -8 -134 2 -134 12 0 24 121 13 132 -4 4 -11 5
-15 2z"/>
<path d="M280 2155 c-6 -8 -9 -19 -5 -24 8 -13 45 9 45 26 0 18 -25 16 -40 -2z"/>
<path d="M2680 2136 c0 -9 5 -16 10 -16 6 0 10 4 10 9 0 6 -4 13 -10 16 -5 3
-10 -1 -10 -9z"/>
<path d="M240 2095 c-7 -8 -18 -15 -25 -15 -6 0 -17 -11 -23 -25 -7 -15 -8
-25 -2 -25 6 0 10 4 10 8 0 4 14 13 30 19 20 8 30 18 30 32 0 25 -3 26 -20 6z"/>
<path d="M1350 2090 c0 -5 11 -10 25 -10 14 0 25 5 25 10 0 6 -11 10 -25 10
-14 0 -25 -4 -25 -10z"/>
<path d="M2679 1983 c0 -59 -2 -121 -4 -138 -5 -34 2 -65 15 -65 12 0 12 298
0 305 -6 4 -10 -33 -11 -102z"/>
<path d="M2626 2033 c-10 -10 -7 -101 4 -108 11 -7 11 -7 14 58 1 47 -4 63
-18 50z"/>
<path d="M2625 1870 c-3 -5 -1 -10 4 -10 6 0 11 5 11 10 0 6 -2 10 -4 10 -3 0
-8 -4 -11 -10z"/>
<path d="M2150 1780 c0 -6 7 -13 15 -17 24 -9 27 1 5 15 -13 8 -20 8 -20 2z"/>
<path d="M2677 1647 c-7 -49 -3 -107 8 -107 13 0 19 127 6 134 -5 3 -11 -9
-14 -27z"/>
<path d="M2400 1650 c0 -5 5 -10 10 -10 6 0 10 5 10 10 0 6 -4 10 -10 10 -5 0
-10 -4 -10 -10z"/>
<path d="M2720 1525 c0 -69 4 -125 8 -125 13 0 24 195 12 224 -5 14 -12 26
-15 26 -3 0 -5 -56 -5 -125z"/>
<path d="M1393 1209 c-12 -31 -12 -31 7 -14 11 10 20 24 20 32 0 24 -15 14
-27 -18z"/>
<path d="M1280 1170 c0 -5 7 -10 15 -10 8 0 15 5 15 10 0 6 -7 10 -15 10 -8 0
-15 -4 -15 -10z"/>
<path d="M1230 1130 c0 -5 16 -10 35 -10 19 0 35 5 35 10 0 6 -16 10 -35 10
-19 0 -35 -4 -35 -10z"/>
<path d="M1255 1101 c-16 -4 -31 -12 -31 -19 -1 -6 -2 -21 -3 -31 0 -11 -10
-23 -21 -26 -14 -5 -20 -14 -18 -28 2 -16 -2 -22 -17 -22 -11 0 -20 -7 -21
-15 -1 -8 -2 -23 -2 -33 -1 -9 -11 -25 -22 -34 -11 -10 -20 -25 -20 -35 0 -10
-6 -18 -12 -18 -14 0 31 -39 45 -40 15 0 32 23 62 85 16 33 35 67 41 75 7 8
13 18 13 23 0 4 8 18 17 32 8 13 17 30 18 37 1 7 5 19 10 26 12 20 -5 29 -39
23z"/>
<path d="M2 910 c0 -19 2 -27 5 -17 2 9 2 25 0 35 -3 9 -5 1 -5 -18z"/>
<path d="M0 755 c0 -25 5 -45 10 -45 6 0 10 20 10 45 0 25 -4 45 -10 45 -5 0
-10 -20 -10 -45z"/>
<path d="M1065 759 c-9 -17 -14 -33 -11 -37 8 -8 46 28 46 44 0 27 -20 23 -35
-7z"/>
<path d="M525 420 c-3 -5 -4 -14 0 -20 8 -13 35 -1 35 16 0 16 -26 19 -35 4z"/>
<path d="M732 395 c-1 -25 3 -35 14 -35 11 0 14 9 12 32 -4 44 -24 47 -26 3z"/>
<path d="M780 370 c0 -5 5 -10 10 -10 6 0 10 5 10 10 0 6 -4 10 -10 10 -5 0
-10 -4 -10 -10z"/>
<path d="M7 193 c-10 -9 -9 -93 1 -93 14 0 38 54 34 78 -3 21 -21 29 -35 15z"/>
<path d="M0 10 c0 -5 5 -10 11 -10 5 0 7 5 4 10 -3 6 -8 10 -11 10 -2 0 -4 -4
-4 -10z"/>
</g>
</svg>
